<?xml version="1.0" encoding="UTF-8"?>
<svg xmlns="http://www.w3.org/2000/svg" viewBox="0 0 641.35 518.11">
  <defs>
    <style>
      .cls-1, .cls-2 {
        fill: #400056;
      }

      .cls-1, .cls-3 {
        stroke: #400059;
        stroke-miterlimit: 10;
        stroke-width: 7px;
      }

      .cls-4 {
        isolation: isolate;
      }

      .cls-4, .cls-3 {
        fill: none;
      }
    </style>
  </defs>
  <g id="Capa_1_Imagen" data-name="Capa 1 Imagen">
    <path class="cls-1" d="m309.09,513.4c-9.02-.5-17.86-.68-26.64-1.58-10.6-1.09-21.17-2.37-31.59-4.71-17.39-3.91-32.56-12.08-46.12-23.53-10.7-9.03-18.53-20.16-24.86-32.51-5.47-10.67-8.77-21.97-10.62-33.77-1.51-9.67-2.7-19.37-3.56-29.12-.42-4.81-.45-9.65-.7-14.47-.4-7.57-.89-15.13-1.74-22.66-.28-2.48-.73-4.94-.8-7.44-.05-1.76.67-3.18,1.7-4.44.95-1.16,2.25-.46,3.4-.31.89.12.83.95.92,1.57,1.77,13.05,2.84,26.15,3.32,39.31.32,8.65,1.19,17.27,2.38,25.86,1.07,7.75,1.98,15.54,4.08,23.09,7.4,26.62,22.55,47.34,46.63,61.37,11.56,6.73,24.04,10.42,37.12,12.54,6.58,1.07,13.19,1.88,19.81,2.5,7.62.72,15.26,1.44,22.94,1.27,5.5-.12,11,.07,16.5-.16,7.2-.29,14.36-1.05,21.52-1.85,10.6-1.18,21.13-2.84,31.36-5.92,12.65-3.81,23.8-10.44,33.92-18.86,15.69-13.05,25.54-29.84,31.32-49.17,2.33-7.79,3.32-15.86,4.41-23.91,1.12-8.21,1.9-16.46,2.39-24.73.24-4.12.29-8.24.56-12.36.42-6.27.88-12.54,1.6-18.79.4-3.47.92-6.93,1.21-10.42.07-.85.41-1.4,1.35-1.48.94-.08,2.03-.63,2.75.13,1.24,1.31,2.13,2.9,2.02,4.82-.09,1.66-.22,3.33-.44,4.98-1,7.47-1.5,14.98-1.98,22.51-.45,7.02-.46,14.07-1.21,21.07-1.32,12.28-2.53,24.6-5.53,36.62-4.17,16.72-11.97,31.65-23.1,44.74-7.47,8.79-16.53,15.78-26.45,21.7-11.45,6.83-23.83,10.91-36.88,13.25-8.16,1.46-16.39,2.34-24.62,3.25-6.92.77-13.88.88-20.82,1.26-1.91.11-3.82.22-5.53.32Z"/>
    <path class="cls-1" d="m267.58,158.28c-12.32.36-23.59,1.29-34.76,3.27-12.2,2.17-23.49,6.46-33.08,14.54-5.69,4.79-10.68,10.28-15.46,15.95-.69.82-1.14,1.83-1.67,2.78-1.15,2.07-2.41,2.51-4.54,1.54-.51-.23-.99-.36-1.56-.24-8.61,1.76-17.09,3.91-25.28,7.16-14.16,5.62-26.69,13.6-36.6,25.31-9.27,10.96-15.33,23.49-17.64,37.74-.64,3.97-1.01,7.92-.03,11.9.3,1.2-.36,2.11-1.31,2.75-.98.67-2.75.54-3.78-.25-1.52-1.16-1.95-2.85-2.11-4.63-.29-3.18.09-6.32.6-9.45,3.81-23.42,15.48-42.04,34.4-56.22,10.66-7.99,22.69-13.16,35.32-17.09,4.29-1.33,8.64-2.45,13.09-3.12.62-.09,1.27-.27,1.86-.16,2.01.39,3.06-.6,4.32-2.1,6.84-8.14,14-15.99,23.06-21.81,8.88-5.71,18.64-9.13,28.96-11.06,12.44-2.32,25.03-3.02,37.64-3.54,2.08-.08,4.17-.11,6.24.2.79.12,1.55.33,2.24.72,1.23.69,1.82,1.83,1.57,3.12-.25,1.31-1.09,2.11-2.36,2.47-1.02.28-2.07.22-3.11.22-2.33,0-4.67,0-6.01,0Z"/>
    <path class="cls-1" d="m350.76,158.29c-2.11,0-4.57,0-7.03,0-.79,0-1.59-.02-2.36-.22-1.3-.34-2.27-1.44-2.42-2.73-.13-1.14.55-2.33,1.72-2.95,1.21-.64,2.54-.76,3.87-.83,6.43-.31,12.83.35,19.22.78,10.72.73,21.36,2.03,31.77,4.9,12.48,3.45,23.29,9.74,32.41,18.89,4.26,4.28,8.48,8.61,12.06,13.5.26.36.55.47.94.46,5.22-.21,10.11,1.4,15.04,2.74,10.9,2.96,21.26,7.28,30.86,13.23,18.42,11.42,31.2,27.38,37.99,48.04,2.08,6.32,3.2,12.83,3.52,19.47.07,1.54.04,3.09-.39,4.59-.55,1.92-1.88,3.11-3.53,3.23-2.22.16-3.55-1.16-3.2-3.35.36-2.27.55-4.53.4-6.84-.41-6.58-1.96-12.9-4.32-19.03-8.14-21.16-22.96-36-43.25-45.7-10.4-4.97-21.35-8.14-32.61-10.35-.51-.1-.96,0-1.43.25-1.81.96-3.22.47-4.37-1.19-8.4-12.15-18.66-22.23-32.35-28.32-6.65-2.96-13.71-4.59-20.87-5.77-6.91-1.14-13.88-1.67-20.85-2.28-3.49-.31-6.99-.26-10.83-.5Z"/>
    <path class="cls-1" d="m538.49,431.81c.19,11.06-2.12,21.73-5.04,32.3-1.64,5.93-3.35,11.82-6.08,17.39-8.04,16.44-21.23,26.37-38.7,31.07-7.37,1.98-14.83,2.32-22.41,1.84-8.04-.52-15.5-2.84-22.58-6.55-1-.52-1.96-1.12-2.72-1.97-1.18-1.32-1.32-2.6-.45-3.85.87-1.27,2.29-1.67,3.87-1.03.84.34,1.66.76,2.46,1.21,6,3.32,12.5,5.06,19.28,5.57,16.28,1.21,31.18-2.42,43.75-13.36,6.86-5.97,11.44-13.53,14.31-22.06,3.25-9.66,5.86-19.52,7.16-29.66.64-5,.8-10.04.66-15.09-.03-.97.09-1.91.31-2.85.43-1.83,1.7-2.9,3.3-2.83,1.52.07,2.77,1.38,2.85,3.24.1,2.2.02,4.41.02,6.62Z"/>
    <path class="cls-1" d="m86.01,432.56c.07,9.82,1.99,19.34,4.58,28.76,1.55,5.65,3.05,11.31,5.58,16.65,7.38,15.59,19.74,24.83,36.39,28.61,5.47,1.24,11.01,1.92,16.61,1.48,7.93-.63,15.66-2.13,22.68-6.19.79-.46,1.6-.89,2.51-1.08,1.4-.29,2.57.21,3.31,1.41.63,1.02.55,2.34-.25,3.39-.67.88-1.59,1.46-2.54,1.99-5.2,2.91-10.77,4.77-16.59,5.98-4.98,1.04-9.99,1.13-15.04,1-11.24-.29-21.6-3.53-31.2-9.31-11.03-6.63-18.45-16.27-23.26-28.04-2.96-7.26-4.72-14.89-6.53-22.5-2.26-9.53-3.22-19.2-2.76-28.99.07-1.5.45-2.8,1.96-3.48,1.46-.66,3.09-.11,3.84,1.31.47.9.71,1.86.71,2.88,0,2.04,0,4.08,0,6.12Z"/>
    <path class="cls-1" d="m300.02,265.22c-9.25-.55-18.34-2.07-27.22-4.77-3.62-1.1-7.19-2.36-10.76-3.6-.89-.31-1.42-.14-1.99.62-3.76,4.89-7.6,9.71-12.26,13.8-6.16,5.4-13.15,9.5-20.52,12.95-9.25,4.34-18.84,7.71-28.89,9.71-1.72.34-3.47.48-5.22.38-.57-.03-1.16-.14-1.71-.33-1.18-.4-1.96-1.52-2-2.76-.04-1.32.59-2.21,1.77-2.75,1.15-.53,2.4-.71,3.64-.81,4.98-.41,9.72-1.87,14.43-3.36,10.44-3.3,20.43-7.62,29.35-14.07,6.95-5.02,12.65-11.3,17.36-18.46,1.45-2.21,3.08-2.86,5.66-1.93,5.75,2.07,11.48,4.19,17.45,5.58,6.04,1.4,12.11,2.57,18.33,2.97,6.38.41,12.39-1.01,18.3-3.18,1.17-.43,2.35-.85,3.55-1.19,2.13-.6,3.72.03,4.3,1.63.66,1.82,0,3.42-2.13,4.3-4.77,1.97-9.64,3.62-14.72,4.63-2.22.44-4.45.65-6.71.64Z"/>
    <path class="cls-1" d="m378.32,444.53c.04-10.53,1.86-18.65,6.55-25.85,7.13-10.94,17.18-17.01,30.45-17.35,5.13-.13,10.14.51,14.97,2.24,2.6.93,5.04,2.22,6.9,4.35,1.15,1.31,1.2,2.82.26,3.98-.96,1.18-2.43,1.46-3.94.73-.41-.2-.83-.4-1.19-.68-2.3-1.78-4.92-2.8-7.75-3.25-7.42-1.18-14.83-1.44-21.75,2.06-8.07,4.09-13.47,10.57-16.08,19.28-3.21,10.72-2.46,21.1,2.68,31.11,1.9,3.7,4.8,6.33,8.48,8.17.97.48,1.95.94,2.87,1.5,1.29.79,1.8,2.11,1.44,3.43-.36,1.31-1.46,2.08-3.04,2.12-1.15.03-2.21-.31-3.24-.78-6.62-3.03-11.07-8.06-13.83-14.74-2.43-5.88-3.85-11.94-3.77-16.34Z"/>
    <path class="cls-1" d="m239.73,442.76c-.08,8.9-2.3,17.17-7.3,24.54-2.68,3.95-6.45,6.68-10.85,8.54-1.01.43-2.06.64-3.17.51-1.2-.14-1.97-.81-2.43-1.88-.47-1.09-.16-2.03.54-2.9.45-.56,1.01-1,1.68-1.26,7.48-2.98,11.26-8.94,13.39-16.34,2.99-10.41,2.17-20.51-2.84-30.03-4.39-8.34-11.29-13.87-20.77-15.44-6.13-1.01-12.28-.77-18.25,1.28-1.77.61-3.16,1.83-4.77,2.7-1.88,1.02-3.56.67-4.49-.85-.72-1.17-.61-2.29.16-3.38.89-1.25,2.12-2.1,3.41-2.88,4.48-2.69,9.47-3.56,14.56-3.93,8.83-.64,17.04,1.19,24.34,6.42,8.62,6.17,13.65,14.61,15.8,24.89.7,3.32.91,6.67.99,10.02Z"/>
    <path class="cls-1" d="m558.99,349.97c.25,6.61-1.14,13.08-3.45,19.39-.27.74-.56,1.48-1.04,2.12-.82,1.11-2.37,1.64-3.53,1.2-1.27-.47-2.1-1.73-2.03-3.14.05-1.01.38-1.96.71-2.9,2.58-7.44,3.44-15.09,2.53-22.89-.91-7.74-3.2-15.1-6.51-22.17-2.15-4.6-4.45-9.12-6.96-13.53-1.14-2.01-2.58-3.77-4.16-5.44-.93-.98-1.25-2.19-.57-3.45.68-1.27,1.82-1.74,3.24-1.65.98.06,1.73.52,2.45,1.12,1.23,1.03,2.16,2.3,3.01,3.65,3.46,5.5,6.38,11.29,9.1,17.19,3.1,6.72,5.36,13.7,6.57,21,.51,3.08.76,6.2.63,9.48Z"/>
    <path class="cls-1" d="m59,348.62c.13-8.79,2.44-18.06,6.32-26.96,2.95-6.75,6.22-13.35,10.19-19.57.7-1.09,1.42-2.16,2.36-3.06,1.1-1.04,2.36-1.72,3.94-1.47,1.15.18,2.04.79,2.41,1.92.39,1.17.36,2.31-.67,3.21-2.28,1.98-3.76,4.55-5.18,7.14-4.15,7.6-8.12,15.29-10.43,23.69-1.91,6.95-2.96,14.01-2.21,21.24.42,4.07,1.32,8.04,2.68,11.9.29.82.56,1.65.66,2.53.2,1.63-.41,2.8-1.85,3.43-1.23.54-2.72.09-3.64-1.12-.51-.67-.82-1.44-1.11-2.22-2.36-6.35-3.43-12.93-3.48-20.65Z"/>
    <path class="cls-1" d="m388.71,264.78c-14.33.48-27.21-3.91-39.09-11.62-1.3-.84-2.51-1.8-3.29-3.18-.74-1.29-.6-2.49.39-3.55.89-.95,2.33-1.22,3.56-.6.52.26.99.61,1.47.94,6.32,4.34,13.06,7.84,20.54,9.66,6.42,1.56,12.97,2.04,19.58,1.75,1.7-.07,3.41-.22,5.1.14,1.53.33,2.45,1.27,2.55,2.66.12,1.52-.57,2.63-2.16,3.08-2.83.8-5.76.75-8.65.72Z"/>
    <path class="cls-1" d="m297.87,138.62c.3-4.65,1.84-9.37,5.49-13.17,4.11-4.27,10.36-4.22,13.88-.01.54.64.98,1.33,1.16,2.17.31,1.42-.15,2.73-1.23,3.41-1.06.67-2.67.51-3.73-.36-.22-.19-.44-.38-.65-.58-1.84-1.69-3.37-1.71-5.02.17-2.63,3-3.78,6.55-3.18,10.52.4,2.62,1.92,4.54,4.4,5.66,1.8.82,2.35,1.82,2.01,3.4-.29,1.37-1.57,2.35-3.22,2.47-1.64.12-2.99-.55-4.24-1.52-3.34-2.56-5.56-7.11-5.68-12.16Z"/>
    <path class="cls-1" d="m305.16,455.33c-5.52.05-10.6-1.48-15.35-4.18-1.35-.76-2.45-1.78-2.29-3.55.17-1.92,2.05-3.24,3.86-2.58,2.07.75,4.02,1.84,6.11,2.49,6.74,2.08,13.32,1.34,19.69-1.56,1.32-.6,2.62-1.27,3.91-1.95.69-.36,1.41-.52,2.16-.53,2.24-.05,3.67,2.33,2.62,4.31-.47.88-1.23,1.47-2.05,1.96-5.75,3.41-11.89,5.52-18.64,5.6Z"/>
    <path class="cls-1" d="m174.69,310.5c-.11,5.91-1.52,11.47-4.71,16.47-2.51,3.94-5.96,6.69-10.62,7.72-1.72.38-3.39.22-5-.5-1.52-.68-2.36-2.14-2.09-3.6.25-1.36,1.29-2.15,3.02-2.3.21-.02.42-.05.62-.03,4.85.42,7.58-2.5,9.53-6.31,2.18-4.26,2.83-8.93,2.94-13.67.02-.83,0-1.67.09-2.5.17-1.75,1.22-2.75,2.9-2.86,1.23-.08,2.57.98,3,2.37.53,1.71.36,3.46.32,5.21Z"/>
    <path class="cls-1" d="m233.2,286.14c1.73-.02,2.93.75,3.29,2.06.45,1.66-.08,2.94-1.79,3.81-3.84,1.95-7.47,4.2-10.77,6.97-3.69,3.09-6.91,6.62-9.69,10.55-.48.68-.98,1.36-1.55,1.95-1.18,1.24-2.97,1.45-4.33.56-.93-.61-1.36-2.38-.83-3.76.25-.65.6-1.28,1-1.86,5.56-8.05,12.61-14.47,21.23-19.13,1.11-.6,2.26-1.06,3.44-1.15Z"/>
    <path class="cls-1" d="m410.79,309.62c-.04,1.1-.35,2.07-1.42,2.58-1.22.59-2.42.53-3.52-.31-.74-.56-1.27-1.32-1.79-2.07-5.15-7.43-11.7-13.26-19.79-17.34-.48-.24-.96-.51-1.39-.83-1.31-.95-1.77-2.39-1.24-3.72.47-1.18,1.9-1.94,3.4-1.78,1.31.14,2.47.68,3.61,1.31,8.42,4.64,15.34,10.95,20.83,18.84.69.99,1.35,2.01,1.31,3.3Z"/>
    <path class="cls-1" d="m441.03,302.14c-2.13-.1-4.65-1.02-6.79-2.65-6.11-4.65-9.42-10.83-9.7-18.55-.03-.78.08-1.58.25-2.35.37-1.74,1.97-2.93,3.62-2.77,1.53.15,2.73,1.54,2.65,3.37-.2,4.75,1.18,8.93,4.19,12.6.83,1.01,1.79,1.84,2.87,2.57,1.71,1.15,3.5,1.4,5.45.67,1.88-.7,3.09-.33,4,1.12.78,1.24.52,2.84-.71,4.08-1.43,1.44-3.22,2-5.84,1.93Z"/>
    <path class="cls-1" d="m317.36,387.83c-.24,2.96-1.33,6.11-3.93,8.52-1.95,1.81-4.64.99-5.3-1.49-.25-.93.11-1.72.55-2.48.45-.8.99-1.54,1.39-2.36,1.35-2.77.32-6.01-2.37-7.55-.65-.37-1.34-.67-1.98-1.06-1.18-.73-1.69-1.9-1.42-3.2.28-1.32,1.11-2.11,2.42-2.4.87-.19,1.72-.13,2.58.18,4.18,1.52,8.02,6.9,8.06,11.84Z"/>
    <path class="cls-1" d="m73.71,400.39c-.9.04-1.71-.46-2.39-1.17-1.7-1.78-3.24-3.7-4.48-5.83-.95-1.64-.7-3.35.55-4.28,1.22-.91,3.1-.77,4.31.54,1.89,2.05,3.77,4.14,4.98,6.68.97,2.04-.56,4.13-2.97,4.06Z"/>
    <path class="cls-1" d="m539.86,407.27c2.29.34,4.79,1.53,7.02,3.21,1.2.9,1.39,2.36.79,3.59-.52,1.07-2.05,1.88-3.37,1.58-2.53-.56-4.87-1.65-7.06-3-1.24-.77-1.66-2.18-1.25-3.35.49-1.4,1.59-2.08,3.87-2.03Z"/>
    <path class="cls-1" d="m320.67,153.52c.37-2.2,1.32-4.53,3.01-6.49.94-1.1,2.24-1.21,3.55-.66,1.26.52,1.68,1.66,1.56,2.86-.24,2.53-1.36,4.79-2.78,6.85-.73,1.06-2.3,1.34-3.4.9-1.16-.47-1.98-1.77-1.95-3.45Z"/>
    <path class="cls-1" d="m186.08,493.33c-2.06,0-3.5-1.9-2.78-3.85.72-1.98,1.96-3.67,3.58-5.02,1-.83,2.18-1.01,3.38-.39,1.24.64,1.69,1.8,1.46,3.05-.48,2.63-2.04,4.58-4.3,5.96-.4.24-.87.27-1.33.25Z"/>
    <path class="cls-1" d="m340.16,252.73c.03,1.39-.9,2.73-2.19,3.18-1.22.43-2.55,0-3.4-1.19-1.03-1.44-1.52-3.06-1.1-4.83.52-2.18,2.95-2.97,4.72-1.59,1.11.87,1.94,2.72,1.97,4.43Z"/>
    <path class="cls-1" d="m430.16,487.79c1.72,0,3.02,1.35,3.06,3.22.04,1.73-1.47,3.3-3.2,3.3-1.74,0-3.02-1.38-3.02-3.25,0-1.84,1.37-3.27,3.16-3.28Z"/>
  </g>
  <g id="Elipse_1" data-name="Elipse 1" class="cls-4">
    <g id="Elipse_1-2" data-name="Elipse 1">
      <ellipse class="cls-2" cx="223.76" cy="361.57" rx="20" ry="25"/>
      <ellipse class="cls-3" cx="223.76" cy="361.57" rx="20" ry="25"/>
    </g>
  </g>
  <g id="Elipse_1-3" data-name="Elipse 1" class="cls-4">
    <g id="Elipse_1-4" data-name="Elipse 1">
      <ellipse class="cls-2" cx="390.76" cy="361.57" rx="20" ry="25"/>
      <ellipse class="cls-3" cx="390.76" cy="361.57" rx="20" ry="25"/>
    </g>
    <g>
      <path class="cls-2" d="m4.25,84.83l13.79-7.87c3.59-2.05,6.86-3.47,9.8-4.27,2.95-.8,5.99-.88,9.12-.25,8.1,1.55,14.86,7.08,20.29,16.59,1.79,3.14,3.15,6.16,4.08,9.06.93,2.9,1.42,5.72,1.47,8.45.05,2.73-.35,5.42-1.2,8.08-.68,2.06-1.64,3.94-2.87,5.65-1.23,1.71-2.71,3.27-4.45,4.67-1.74,1.4-3.81,2.79-6.2,4.16l-13.8,7.87c-1.92,1.1-3.54,1.64-4.85,1.61-1.31-.03-2.41-.48-3.31-1.37-.9-.89-1.83-2.17-2.8-3.86L1.46,95.02c-1.3-2.28-1.73-4.22-1.3-5.83.44-1.6,1.8-3.06,4.08-4.36Zm8.88,6.04l20.24,35.47,8.02-4.58c1.76-1,3.11-1.84,4.05-2.5.94-.66,1.84-1.49,2.69-2.48.85-.99,1.47-2.05,1.86-3.19,1.83-5.02.66-11.18-3.52-18.5-2.94-5.16-5.93-8.57-8.95-10.25-3.02-1.68-5.87-2.22-8.55-1.62-2.68.6-5.64,1.82-8.87,3.67l-6.99,3.99Z"/>
      <path class="cls-2" d="m70.77,88.42l-11.31-26.64c-.96-2.27-1.17-4.18-.64-5.75.54-1.57,1.64-2.7,3.3-3.41,1.74-.74,3.36-.76,4.86-.06s2.73,2.18,3.7,4.45l11.56,27.24c1.31,3.1,2.76,5.54,4.33,7.32,1.57,1.78,3.49,2.88,5.74,3.27,2.25.4,4.96-.08,8.13-1.42,4.38-1.86,6.99-4.34,7.81-7.44.82-3.1.23-7.02-1.78-11.75l-11.66-27.47c-.97-2.29-1.19-4.21-.66-5.76.53-1.55,1.64-2.68,3.33-3.4,1.69-.72,3.29-.74,4.81-.06,1.52.68,2.77,2.16,3.74,4.45l11.31,26.64c1.84,4.33,2.95,8.13,3.34,11.38.39,3.26-.13,6.47-1.54,9.66-1.22,2.72-2.99,5.07-5.3,7.06-2.31,1.99-5.25,3.74-8.82,5.26-4.26,1.81-8.12,2.9-11.58,3.29-3.46.39-6.57.03-9.33-1.08-2.76-1.1-5.23-2.97-7.41-5.59-2.18-2.62-4.16-6.03-5.94-10.21Z"/>
      <path class="cls-2" d="m133.98,32.93l12.7,41.91,23.65-7.17c1.89-.57,3.47-.55,4.76.06,1.29.61,2.14,1.61,2.56,3,.43,1.41.28,2.71-.45,3.89-.73,1.18-2.05,2.06-3.96,2.64l-28.16,8.54c-2.54.77-4.54.76-5.99-.03-1.45-.79-2.56-2.44-3.32-4.95l-13.44-44.34c-.71-2.36-.72-4.29-.02-5.78s1.92-2.51,3.65-3.04c1.75-.53,3.35-.38,4.79.46,1.44.84,2.52,2.45,3.24,4.83Z"/>
      <path class="cls-2" d="m228.02,46.22c.37,1.88.31,4-.18,6.37s-1.52,4.81-3.09,7.31c-1.57,2.5-3.76,4.72-6.59,6.65-2.82,1.93-6.29,3.3-10.39,4.12-3.11.62-6,.89-8.67.81-2.67-.08-5.17-.54-7.49-1.38-2.33-.83-4.57-2.1-6.72-3.79-1.93-1.54-3.67-3.35-5.22-5.43-1.56-2.08-2.87-4.36-3.94-6.85-1.07-2.49-1.89-5.2-2.48-8.13-.95-4.75-1.1-9.14-.47-13.17.63-4.03,1.97-7.64,4.02-10.82s4.66-5.82,7.84-7.9c3.18-2.08,6.73-3.52,10.65-4.3,4.78-.95,9.22-.84,13.33.32,4.11,1.16,7.44,2.95,9.98,5.36,2.54,2.41,4.07,4.86,4.56,7.36.27,1.37.03,2.67-.73,3.91s-1.82,1.99-3.19,2.27c-1.53.3-2.75.17-3.66-.4-.91-.57-2.01-1.65-3.3-3.23-2.14-2.61-4.41-4.44-6.8-5.47s-5.14-1.24-8.22-.62c-4.91.98-8.45,3.62-10.62,7.93-2.17,4.31-2.57,9.9-1.2,16.77.91,4.59,2.32,8.28,4.21,11.07,1.89,2.79,4.17,4.7,6.83,5.73,2.66,1.03,5.57,1.23,8.74.6,3.43-.68,6.17-2.11,8.21-4.29s3.33-5.04,3.88-8.58c.2-1.66.58-3.05,1.14-4.18.55-1.13,1.66-1.86,3.33-2.19,1.42-.28,2.74-.03,3.96.76,1.22.79,1.97,1.92,2.27,3.4Z"/>
      <path class="cls-2" d="m276.24,9.82l-27.36,2.36,1.27,14.72,25.19-2.18c1.85-.16,3.27.14,4.26.89.98.75,1.54,1.81,1.65,3.17.12,1.36-.24,2.51-1.06,3.45s-2.18,1.49-4.06,1.65l-25.19,2.18,1.47,17.05,28.3-2.44c1.91-.16,3.38.15,4.43.96,1.04.8,1.63,1.94,1.76,3.41.12,1.42-.26,2.61-1.15,3.58-.89.97-2.29,1.54-4.2,1.7l-33,2.85c-2.65.23-4.6-.19-5.86-1.27-1.26-1.07-2-2.92-2.23-5.53l-3.89-45.06c-.15-1.74-.02-3.19.41-4.34.42-1.15,1.16-2.02,2.22-2.62,1.06-.6,2.45-.97,4.17-1.12l32.06-2.77c1.94-.17,3.41.14,4.42.92,1.02.78,1.58,1.86,1.7,3.25.12,1.42-.25,2.6-1.12,3.54-.87.94-2.27,1.49-4.2,1.66Z"/>
      <path class="cls-2" d="m368.25,43.83c-.13,1.91-.74,3.95-1.83,6.11s-2.72,4.25-4.88,6.26c-2.16,2.01-4.86,3.58-8.09,4.7-3.23,1.13-6.93,1.55-11.11,1.27-3.17-.21-6.03-.7-8.58-1.48-2.55-.77-4.85-1.87-6.88-3.28-2.03-1.41-3.87-3.21-5.5-5.41-1.46-1.99-2.67-4.19-3.63-6.6-.96-2.41-1.64-4.96-2.02-7.64-.38-2.69-.48-5.52-.28-8.49.32-4.83,1.31-9.11,2.98-12.84,1.66-3.73,3.89-6.86,6.7-9.41,2.8-2.54,6.01-4.4,9.63-5.59,3.62-1.18,7.42-1.64,11.4-1.38,4.86.32,9.12,1.58,12.79,3.77,3.66,2.19,6.41,4.78,8.24,7.77,1.83,2.99,2.66,5.75,2.49,8.29-.09,1.39-.67,2.59-1.72,3.59-1.05,1-2.28,1.45-3.67,1.36-1.56-.1-2.7-.55-3.43-1.34-.73-.79-1.51-2.12-2.35-3.98-1.38-3.08-3.1-5.43-5.15-7.05s-4.64-2.53-7.78-2.74c-5-.33-9.1,1.3-12.32,4.9-3.22,3.6-5.06,8.89-5.52,15.88-.31,4.67.09,8.6,1.19,11.78,1.1,3.19,2.81,5.62,5.11,7.31,2.3,1.69,5.06,2.64,8.28,2.86,3.49.23,6.51-.44,9.04-2.01,2.53-1.57,4.52-4,5.98-7.27.62-1.55,1.35-2.8,2.18-3.74.83-.94,2.09-1.36,3.79-1.25,1.45.1,2.66.68,3.63,1.76.97,1.08,1.4,2.37,1.3,3.87Z"/>
      <path class="cls-2" d="m397.94,13.03l-3.04,16.97,25.9,4.64,3.04-16.97c.43-2.42,1.3-4.14,2.61-5.16,1.31-1.02,2.85-1.37,4.63-1.05,1.8.32,3.16,1.18,4.06,2.58.9,1.4,1.14,3.32.7,5.77l-8.36,46.66c-.44,2.45-1.33,4.18-2.68,5.19s-2.91,1.35-4.69,1.04c-1.8-.32-3.14-1.19-3.99-2.61s-1.07-3.34-.64-5.76l3.57-19.92-25.9-4.64-3.57,19.92c-.44,2.45-1.33,4.18-2.68,5.19-1.35,1.01-2.91,1.35-4.69,1.04-1.8-.32-3.14-1.19-3.99-2.61-.86-1.42-1.07-3.34-.64-5.76l8.36-46.66c.43-2.42,1.29-4.15,2.57-5.17,1.28-1.02,2.84-1.37,4.67-1.04,1.8.32,3.16,1.19,4.06,2.58.9,1.4,1.14,3.32.7,5.77Z"/>
      <path class="cls-2" d="m439.91,70.08l12.24-45.8c.64-2.38,1.65-4.02,3.06-4.92s2.96-1.12,4.68-.66c1.77.47,3.05,1.45,3.83,2.91.78,1.47.85,3.41.21,5.81l-12.24,45.8c-.64,2.41-1.67,4.06-3.09,4.95-1.42.9-3.01,1.11-4.78.63-1.69-.45-2.93-1.43-3.7-2.92s-.84-3.43-.21-5.81Z"/>
      <path class="cls-2" d="m495.34,37.03l10.04,41.3,12.12-33.67c.79-2.19,1.85-3.66,3.18-4.42,1.33-.76,2.8-.85,4.39-.27,1.65.59,2.75,1.61,3.31,3.05.56,1.44.44,3.25-.34,5.44l-16.03,44.53c-1.79,4.97-4.74,6.71-8.86,5.23-1.03-.37-1.9-.85-2.62-1.44-.72-.59-1.32-1.34-1.81-2.24s-.89-1.9-1.19-2.98c-.31-1.08-.61-2.19-.9-3.31l-9.64-40.72-11.94,33.17c-.78,2.16-1.87,3.62-3.27,4.36-1.4.75-2.89.84-4.46.27-1.62-.58-2.72-1.61-3.3-3.08-.58-1.47-.48-3.28.29-5.41l15.72-43.68c.67-1.85,1.4-3.23,2.19-4.14.91-.98,2.06-1.64,3.45-1.96,1.4-.33,2.75-.25,4.06.22,1.03.37,1.85.86,2.47,1.45.61.6,1.09,1.28,1.44,2.05.35.77.65,1.7.91,2.81s.52,2.26.78,3.47Z"/>
      <path class="cls-2" d="m523.74,99.17l19.76-43.09c1.03-2.24,2.31-3.68,3.84-4.34,1.53-.65,3.11-.61,4.72.13,1.67.76,2.76,1.94,3.29,3.52.52,1.58.27,3.5-.77,5.77l-19.76,43.09c-1.04,2.26-2.33,3.72-3.87,4.36-1.55.65-3.15.59-4.82-.18-1.59-.73-2.64-1.9-3.16-3.5-.51-1.61-.26-3.53.77-5.77Z"/>
      <path class="cls-2" d="m602,90.23l-11.65-6.42-21.09,38.29c-1.22,2.21-2.61,3.57-4.18,4.1-1.57.52-3.13.36-4.69-.5-1.58-.87-2.57-2.12-2.97-3.75s0-3.53,1.2-5.71l21.09-38.29-11.65-6.42c-1.82-1-2.95-2.15-3.4-3.44-.44-1.29-.3-2.6.42-3.91.75-1.37,1.81-2.19,3.17-2.47,1.36-.28,2.91.06,4.66,1.02l33.94,18.69c1.84,1.02,2.99,2.18,3.44,3.49.45,1.31.31,2.62-.41,3.94-.73,1.32-1.77,2.13-3.12,2.43-1.35.3-2.94-.05-4.76-1.05Z"/>
      <path class="cls-2" d="m619.37,153.59l1.88-7.86-20.21-13.79-6.72,4.75c-2.62,1.85-4.56,2.99-5.81,3.42-1.25.42-2.62.13-4.11-.89-1.27-.86-2.07-2.09-2.41-3.68-.34-1.59-.11-2.97.69-4.15.46-.68,1.05-1.3,1.77-1.87.72-.57,1.78-1.32,3.18-2.25l34.73-23.6c.99-.68,2.19-1.5,3.58-2.45,1.39-.95,2.67-1.66,3.84-2.13,1.16-.47,2.39-.64,3.69-.54,1.3.11,2.64.63,4.02,1.57,1.4.96,2.39,2.02,2.97,3.19.57,1.17.87,2.37.87,3.6,0,1.23-.12,2.46-.38,3.69-.26,1.23-.63,2.86-1.12,4.88l-8.9,40.93c-.65,3.14-1.35,5.26-2.11,6.36-.79,1.15-1.99,1.88-3.6,2.19-1.62.3-3.1,0-4.46-.93-.79-.54-1.37-1.14-1.74-1.81-.37-.67-.59-1.38-.64-2.12-.05-.75.04-1.77.29-3.08.25-1.31.47-2.45.68-3.44Zm-10.52-27.4l14.85,10.13,6.5-25.62-21.35,15.49Z"/>
    </g>
  </g>
</svg>